# xmcd
#
# Track frame offsets: 
#        187
#        22430
#        49877
#        65415
#        78885
#        93625
#        106522
#        120645
#        135027
#        154555
#        166662
#
# Disc length: 2639 seconds
#
# Revision: 2
# Processed by: cddbd v1.5.2PL0 Copyright (c) Steve Scherf et al.
# Submitted via: ExactAudioCopy v0.95b4
#
DISCID=7d0a4d0b
DTITLE=Rory Block - Ain't I a Woman
DYEAR=1992
DGENRE=Blues
TTITLE0=Silver Wings
TTITLE1=Faithless World
TTITLE2=Sisters
TTITLE3=Ain't I a Woman
TTITLE4=Come on in My Kitchen
TTITLE5=Rolling Log
TTITLE6=Maggie Campbell
TTITLE7=Never Called Your Name
TTITLE8=Road to Mexico
TTITLE9=Cool Drink of Water
TTITLE10=Walk in Jerusalem
EXTD=
EXTT0=
EXTT1=
EXTT2=
EXTT3=
EXTT4=
EXTT5=
EXTT6=
EXTT7=
EXTT8=
EXTT9=
EXTT10=
PLAYORDER=
